<svg width="115" height="53" viewBox="0 0 115 53" fill="none" xmlns="http://www.w3.org/2000/svg">
<path d="M54.1992 8.35997V48.176C54.1992 48.176 44.6718 38.8887 36.9206 35C30.3189 31.688 18.5011 29.888 18.5011 29.888L22.8207 1.87997C22.8207 1.87997 30.7048 -0.527573 37.5726 1.08797C46.8639 3.27358 54.1992 8.35997 54.1992 8.35997Z" fill="#003A5A"/>
<path d="M15.241 32.84L19.6421 5.11997L13.5294 8.35997L9.20978 39.896C9.20978 39.896 21.8827 39.9614 29.7484 41.48C42.0553 43.856 52.8951 50.264 52.8951 50.264C52.8951 50.264 44.8264 42.1714 35.6981 38.024C28.3071 34.6659 15.241 32.84 15.241 32.84Z" fill="#003A5A"/>
<path d="M7.57973 12.968L11.2473 12.032L6.5202 42.272C6.5202 42.272 23.7663 42.5683 33.09 44.864C42.1372 47.0915 51.6726 53 51.6726 53C51.6726 53 38.4692 47.6 26.1623 48.176C10.407 48.9134 0 51.704 0 51.704L7.57973 12.968Z" fill="#003A5A"/>
<path d="M107.502 42.9501L103.997 12.032L107.502 12.968L115 51.704C115 51.704 107.583 48.176 90.6308 48.176C78.1013 48.176 61.4529 53 61.4529 53C61.4529 53 75.2503 45.9236 85.4146 43.928C95.3642 41.9745 107.502 42.9501 107.502 42.9501Z" fill="#003A5A"/>
<path d="M61.1333 32H66.3817V13.6543H62.9193C62.7209 14.2183 62.465 14.6936 62.1517 15.08C61.8383 15.4664 61.4623 15.7693 61.0237 15.9887C60.585 16.208 60.1672 16.3699 59.7703 16.4743C59.3734 16.5788 58.8826 16.6728 58.2977 16.7563V20.0933L61.1333 19.78V32Z" fill="#003A5A"/>
<path d="M75.9109 29.3367C75.0754 29.2531 74.4644 29.0024 74.0779 28.5847C73.6915 28.1564 73.5035 27.4984 73.5139 26.6107C73.5244 25.8482 73.8272 25.2268 74.4226 24.7463C74.7359 24.9552 75.1015 25.1798 75.5192 25.42C75.937 25.6602 76.2556 25.8482 76.4749 25.984C76.6942 26.1093 76.9136 26.2556 77.1329 26.4227C77.3627 26.5898 77.5194 26.7621 77.6029 26.9397C77.6969 27.1172 77.7439 27.3157 77.7439 27.535C77.7439 28.0677 77.5611 28.5116 77.1956 28.8667C76.8405 29.2218 76.4123 29.3784 75.9109 29.3367ZM76.6472 20.203C76.5428 20.1403 76.3757 20.0463 76.1459 19.921C75.9161 19.7957 75.7386 19.6964 75.6133 19.6233C75.4879 19.5502 75.3313 19.451 75.1432 19.3257C74.9657 19.1899 74.8299 19.0646 74.7359 18.9497C74.6419 18.8243 74.5584 18.6781 74.4853 18.511C74.4226 18.3334 74.3913 18.1454 74.3913 17.947C74.4017 17.4666 74.5845 17.0644 74.9396 16.7407C75.3051 16.4169 75.7386 16.255 76.2399 16.255C76.7412 16.255 77.2269 16.4534 77.6969 16.8503C78.1774 17.2472 78.4176 17.712 78.4176 18.2447C78.4176 18.3804 78.3967 18.5267 78.3549 18.6833C78.3236 18.84 78.2714 18.9967 78.1982 19.1533C78.1356 19.31 78.0573 19.4719 77.9632 19.639C77.8797 19.7957 77.7805 19.9523 77.6656 20.109C77.5507 20.2657 77.4254 20.4223 77.2896 20.579C77.0494 20.4432 76.8353 20.3179 76.6472 20.203ZM75.9109 32.329C77.3314 32.329 78.5742 32.1306 79.6396 31.7337C80.7154 31.3368 81.5718 30.7101 82.2089 29.8537C82.846 28.9972 83.1646 27.9476 83.1646 26.7047C83.1646 26.1302 83.0654 25.5976 82.8669 25.1067C82.6789 24.6158 82.3917 24.1719 82.0052 23.775C81.6292 23.3677 81.2376 23.0126 80.8302 22.7097C80.4334 22.4068 79.9477 22.0882 79.3733 21.754C79.9268 21.472 80.402 21.1691 80.7989 20.8453C81.1958 20.5111 81.5039 20.1717 81.7233 19.827C81.953 19.4823 82.1149 19.1377 82.2089 18.793C82.3134 18.4483 82.3708 18.0932 82.3812 17.7277C82.3917 17.1846 82.2611 16.6623 81.9896 16.161C81.718 15.6492 81.3316 15.1897 80.8302 14.7823C80.3289 14.375 79.6814 14.0512 78.8876 13.811C78.0938 13.5603 77.2165 13.435 76.2556 13.435C74.1354 13.435 72.4904 13.8841 71.3206 14.7823C70.1508 15.6806 69.5502 16.9496 69.5189 18.5893C69.5085 19.2056 69.5711 19.7696 69.7069 20.2813C69.8427 20.7827 70.0464 21.2266 70.3179 21.613C70.5895 21.989 70.8715 22.3128 71.1639 22.5843C71.4668 22.8559 71.8219 23.1327 72.2292 23.4147C71.5504 23.5922 70.955 23.9108 70.4433 24.3703C69.9419 24.8194 69.5764 25.2999 69.3466 25.8117C69.1168 26.3234 69.0019 26.8352 69.0019 27.347C69.0019 28.3601 69.3153 29.2531 69.9419 30.026C70.5686 30.7884 71.3989 31.3629 72.4329 31.7493C73.4774 32.1358 74.6367 32.329 75.9109 32.329Z" fill="#003A5A"/>
<path d="M98.6884 32V27.676L89.2884 28.381C89.6226 27.9737 90.0247 27.5663 90.4948 27.159C90.9752 26.7517 91.4504 26.3913 91.9204 26.078C92.4009 25.7542 92.9022 25.4148 93.4244 25.0597C93.9571 24.7046 94.4532 24.3703 94.9128 24.057C95.3828 23.7437 95.8319 23.3886 96.2601 22.9917C96.6883 22.5948 97.0539 22.1979 97.3568 21.801C97.6701 21.3937 97.9155 20.9289 98.0931 20.4067C98.2811 19.874 98.3751 19.3152 98.3751 18.7303C98.3751 17.9261 98.255 17.2159 98.0147 16.5997C97.7745 15.973 97.4507 15.4612 97.0434 15.0643C96.6361 14.6674 96.14 14.3384 95.5551 14.0773C94.9806 13.8162 94.3801 13.6334 93.7534 13.529C93.1268 13.4246 92.4479 13.3723 91.7168 13.3723C88.4999 13.3723 86.3222 14.234 85.1837 15.9573L85.4187 19.639L88.2701 19.6547L89.0221 16.4273C89.4921 16.2811 90.0665 16.208 90.7454 16.208C91.5496 16.208 92.1554 16.6206 92.5627 17.4457C92.7925 17.9052 92.9074 18.3909 92.9074 18.9027C92.9074 19.7904 92.5471 20.6939 91.8264 21.613C91.1058 22.5321 89.8994 23.6862 88.2074 25.0753C86.1707 26.6629 85.1524 28.2034 85.1524 29.697C85.1524 30.9608 85.1785 31.6658 85.2308 31.812L85.3247 32H98.6884Z" fill="#003A5A"/>
</svg>
