<svg width="115" height="53" viewBox="0 0 115 53" fill="white" xmlns="http://www.w3.org/2000/svg">
<path d="M54.1992 7.82981V47.6458C54.1992 47.6458 44.6718 38.3585 36.9206 34.4698C30.3189 31.1578 18.5011 29.3578 18.5011 29.3578L22.8207 1.34982C22.8207 1.34982 30.7048 -1.05772 37.5726 0.557817C46.8639 2.74343 54.1992 7.82981 54.1992 7.82981Z" fill="white"/>
<path d="M15.241 32.3098L19.6421 4.58982L13.5294 7.82981L9.20978 39.3658C9.20978 39.3658 21.8827 39.4312 29.7484 40.9498C42.0553 43.3258 52.8951 49.7338 52.8951 49.7338C52.8951 49.7338 44.8264 41.6413 35.6981 37.4938C28.3071 34.1357 15.241 32.3098 15.241 32.3098Z" fill="white"/>
<path d="M7.57973 12.4378L11.2473 11.5018L6.5202 41.7418C6.5202 41.7418 23.7663 42.0382 33.09 44.3338C42.1372 46.5614 51.6726 52.4698 51.6726 52.4698C51.6726 52.4698 38.4692 47.0698 26.1623 47.6458C10.407 48.3832 0 51.1738 0 51.1738L7.57973 12.4378Z" fill="white"/>
<path d="M107.502 42.4199L103.997 11.5018L107.502 12.4378L115 51.1738C115 51.1738 107.583 47.6458 90.6308 47.6458C78.1013 47.6458 61.4529 52.4698 61.4529 52.4698C61.4529 52.4698 75.2503 45.3935 85.4146 43.3978C95.3642 41.4443 107.502 42.4199 107.502 42.4199Z" fill="white"/>
<path d="M61.1333 31.4698H66.3817V13.1242H62.9193C62.7209 13.6882 62.465 14.1634 62.1517 14.5498C61.8383 14.9363 61.4623 15.2392 61.0237 15.4585C60.585 15.6778 60.1672 15.8397 59.7703 15.9442C59.3734 16.0486 58.8826 16.1426 58.2977 16.2262V19.5632L61.1333 19.2498V31.4698Z" fill="white"/>
<path d="M75.9109 28.8065C75.0754 28.723 74.4644 28.4723 74.0779 28.0545C73.6915 27.6263 73.5035 26.9683 73.5139 26.0805C73.5244 25.3181 73.8273 24.6966 74.4226 24.2162C74.7359 24.4251 75.1015 24.6496 75.5192 24.8898C75.937 25.1301 76.2556 25.3181 76.4749 25.4538C76.6942 25.5792 76.9136 25.7254 77.1329 25.8925C77.3627 26.0596 77.5194 26.232 77.6029 26.4095C77.6969 26.5871 77.7439 26.7855 77.7439 27.0048C77.7439 27.5375 77.5611 27.9814 77.1956 28.3365C76.8405 28.6916 76.4123 28.8483 75.9109 28.8065ZM76.6472 19.6728C76.5428 19.6102 76.3757 19.5162 76.1459 19.3908C75.9161 19.2655 75.7386 19.1663 75.6133 19.0932C75.4879 19.0201 75.3312 18.9208 75.1432 18.7955C74.9657 18.6597 74.8299 18.5344 74.7359 18.4195C74.6419 18.2942 74.5584 18.148 74.4853 17.9808C74.4226 17.8033 74.3913 17.6153 74.3913 17.4168C74.4017 16.9364 74.5845 16.5343 74.9396 16.2105C75.3051 15.8867 75.7386 15.7248 76.2399 15.7248C76.7412 15.7248 77.2269 15.9233 77.6969 16.3202C78.1774 16.7171 78.4176 17.1818 78.4176 17.7145C78.4176 17.8503 78.3967 17.9965 78.3549 18.1532C78.3236 18.3098 78.2714 18.4665 78.1982 18.6232C78.1356 18.7798 78.0572 18.9417 77.9632 19.1088C77.8797 19.2655 77.7805 19.4222 77.6656 19.5788C77.5507 19.7355 77.4254 19.8922 77.2896 20.0488C77.0494 19.9131 76.8352 19.7877 76.6472 19.6728ZM75.9109 31.7988C77.3314 31.7988 78.5742 31.6004 79.6396 31.2035C80.7154 30.8066 81.5718 30.18 82.2089 29.3235C82.846 28.4671 83.1646 27.4174 83.1646 26.1745C83.1646 25.6001 83.0654 25.0674 82.8669 24.5765C82.6789 24.0856 82.3917 23.6417 82.0052 23.2448C81.6292 22.8375 81.2376 22.4824 80.8302 22.1795C80.4334 21.8766 79.9477 21.5581 79.3733 21.2238C79.9268 20.9418 80.402 20.639 80.7989 20.3152C81.1958 19.981 81.5039 19.6415 81.7233 19.2968C81.953 18.9522 82.1149 18.6075 82.2089 18.2628C82.3134 17.9182 82.3708 17.5631 82.3812 17.1975C82.3917 16.6544 82.2611 16.1322 81.9896 15.6308C81.718 15.1191 81.3316 14.6595 80.8302 14.2522C80.3289 13.8448 79.6814 13.5211 78.8876 13.2808C78.0938 13.0302 77.2165 12.9049 76.2556 12.9049C74.1354 12.9049 72.4904 13.354 71.3206 14.2522C70.1508 15.1504 69.5502 16.4194 69.5189 18.0592C69.5085 18.6754 69.5711 19.2394 69.7069 19.7512C69.8427 20.2525 70.0464 20.6964 70.3179 21.0828C70.5895 21.4588 70.8715 21.7826 71.1639 22.0542C71.4668 22.3257 71.8219 22.6025 72.2292 22.8845C71.5504 23.0621 70.955 23.3806 70.4433 23.8402C69.9419 24.2893 69.5764 24.7697 69.3466 25.2815C69.1168 25.7933 69.0019 26.3051 69.0019 26.8168C69.0019 27.83 69.3153 28.723 69.9419 29.4958C70.5686 30.2583 71.3989 30.8327 72.4329 31.2192C73.4774 31.6056 74.6367 31.7988 75.9109 31.7988Z" fill="white"/>
<path d="M98.6884 31.4698V27.1458L89.2884 27.8508C89.6226 27.4435 90.0248 27.0362 90.4948 26.6288C90.9752 26.2215 91.4504 25.8612 91.9204 25.5478C92.4009 25.2241 92.9022 24.8846 93.4244 24.5295C93.9571 24.1744 94.4532 23.8402 94.9128 23.5268C95.3828 23.2135 95.8319 22.8584 96.2601 22.4615C96.6883 22.0646 97.0539 21.6677 97.3568 21.2708C97.6701 20.8635 97.9155 20.3987 98.0931 19.8765C98.2811 19.3438 98.3751 18.7851 98.3751 18.2002C98.3751 17.396 98.255 16.6857 98.0147 16.0695C97.7745 15.4428 97.4507 14.9311 97.0434 14.5342C96.6361 14.1373 96.14 13.8083 95.5551 13.5472C94.9806 13.2861 94.3801 13.1033 93.7534 12.9988C93.1268 12.8944 92.4479 12.8422 91.7168 12.8422C88.4999 12.8422 86.3222 13.7038 85.1837 15.4272L85.4187 19.1088L88.2701 19.1245L89.0221 15.8972C89.4921 15.751 90.0665 15.6778 90.7454 15.6778C91.5496 15.6778 92.1554 16.0904 92.5627 16.9155C92.7925 17.3751 92.9074 17.8607 92.9074 18.3725C92.9074 19.2603 92.5471 20.1637 91.8264 21.0828C91.1057 22.002 89.8994 23.1561 88.2074 24.5452C86.1707 26.1327 85.1524 27.6733 85.1524 29.1668C85.1524 30.4306 85.1785 31.1356 85.2308 31.2818L85.3247 31.4698H98.6884Z" fill="white"/>
</svg>
